<svg width="134" height="134" viewBox="0 0 134 134" fill="none" xmlns="http://www.w3.org/2000/svg">
<g clip-path="url(#clip0_1233_6)">
<path d="M67 134C104.003 134 134 104.003 134 67C134 29.9969 104.003 0 67 0C29.9969 0 0 29.9969 0 67C0 104.003 29.9969 134 67 134Z" fill="#627EEA"/>
<path d="M69.0854 16.75V53.8931L100.479 67.9212L69.0854 16.75Z" fill="white" fill-opacity="0.602"/>
<path d="M69.0854 16.75L37.6875 67.9212L69.0854 53.8931V16.75Z" fill="white"/>
<path d="M69.0854 91.991V117.229L100.5 73.767L69.0854 91.991Z" fill="white" fill-opacity="0.602"/>
<path d="M69.0854 117.229V91.9868L37.6875 73.767L69.0854 117.229Z" fill="white"/>
<path d="M69.0854 86.1494L100.479 67.9212L69.0854 53.9015V86.1494Z" fill="white" fill-opacity="0.2"/>
<path d="M37.6875 67.9212L69.0854 86.1494V53.9015L37.6875 67.9212Z" fill="white" fill-opacity="0.602"/>
</g>
<defs>
<clipPath id="clip0_1233_6">
<rect width="134" height="134" fill="white"/>
</clipPath>
</defs>
</svg>
