<svg width="218" height="164" viewBox="0 0 218 164" fill="none" xmlns="http://www.w3.org/2000/svg">
<path d="M108.945 12.4094C147.204 12.4094 178.215 43.5147 178.215 81.8907C178.215 120.267 147.204 151.345 108.973 151.345C70.7137 151.345 39.7305 120.239 39.7305 81.8907C39.7032 43.5147 70.7137 12.4094 108.945 12.4094Z" fill="#8247E5"/>
<mask id="mask0_1233_16" style="mask-type:luminance" maskUnits="userSpaceOnUse" x="63" y="42" width="91" height="81">
<path d="M153.854 42.4487H63.084V122.235H153.854V42.4487Z" fill="white"/>
</mask>
<g mask="url(#mask0_1233_16)">
<path d="M131.645 66.748C129.983 65.7914 127.857 65.7914 125.977 66.748L112.734 74.62L103.741 79.622L90.7428 87.4667C89.0806 88.4234 86.9551 88.4234 85.0748 87.4667L74.9106 81.262C73.2483 80.3054 72.0766 78.392 72.0766 76.26V64.3427C72.0766 62.4294 73.0303 60.5434 74.9106 59.3407L85.0748 53.382C86.7371 52.4254 88.8626 52.4254 90.7428 53.382L100.907 59.5867C102.569 60.5434 103.741 62.4567 103.741 64.5887V72.4607L112.734 67.2127V59.122C112.734 57.2087 111.78 55.3227 109.9 54.12L90.9881 42.9134C89.3258 41.9567 87.2003 41.9567 85.3201 42.9134L65.9453 54.366C64.0651 55.3227 63.1113 57.236 63.1113 59.122V81.508C63.1113 83.4214 64.0651 85.3074 65.9453 86.51L85.1021 97.7167C86.7643 98.6734 88.8898 98.6734 90.7701 97.7167L103.768 90.0907L112.761 84.8427L125.759 77.2167C127.421 76.26 129.547 76.26 131.427 77.2167L141.591 83.1754C143.254 84.132 144.425 86.0454 144.425 88.1774V100.095C144.425 102.008 143.472 103.894 141.591 105.097L131.672 111.055C130.01 112.012 127.885 112.012 126.004 111.055L115.813 105.097C114.151 104.14 112.979 102.227 112.979 100.095V92.4687L103.986 97.7167V105.589C103.986 107.502 104.94 109.388 106.82 110.591L125.977 121.797C127.639 122.754 129.765 122.754 131.645 121.797L150.802 110.591C152.464 109.634 153.636 107.721 153.636 105.589V82.9567C153.636 81.0434 152.682 79.1574 150.802 77.9547L131.645 66.748Z" fill="white"/>
</g>
</svg>
