<svg width="34" height="34" viewBox="0 0 34 34" fill="none" xmlns="http://www.w3.org/2000/svg">
<path d="M21.25 1.41666H12.75V4.24999H21.25V1.41666ZM15.5833 19.8333H18.4167V11.3333H15.5833V19.8333ZM26.9592 10.4692L28.9708 8.45749C28.3617 7.73499 27.6958 7.05499 26.9733 6.45999L24.9617 8.47166C22.7054 6.65595 19.8961 5.66622 17 5.66666C9.95917 5.66666 4.25 11.3758 4.25 18.4167C4.25 25.4575 9.945 31.1667 17 31.1667C19.4003 31.168 21.7521 30.4912 23.7846 29.2144C25.8171 27.9376 27.4476 26.1127 28.4884 23.9498C29.5291 21.7869 29.9377 19.374 29.6672 16.989C29.3967 14.604 28.4579 12.344 26.9592 10.4692ZM17 28.3333C11.5175 28.3333 7.08333 23.8992 7.08333 18.4167C7.08333 12.9342 11.5175 8.49999 17 8.49999C22.4825 8.49999 26.9167 12.9342 26.9167 18.4167C26.9167 23.8992 22.4825 28.3333 17 28.3333Z" fill="white"/>
</svg>
